<?xml version="1.0" encoding="UTF-8"?>
<svg width="16px" height="16px" viewBox="0 0 16 16" version="1.1" xmlns="http://www.w3.org/2000/svg">
  <g stroke="none" stroke-width="1" fill="none" fill-rule="evenodd">
    <rect fill="#2E7D32" x="0" y="0" width="16" height="16" rx="3"></rect>
    <path d="M5,4 C5.55228475,4 6,4.44771525 6,5 L6,11 C6,11.5522847 5.55228475,12 5,12 C4.44771525,12 4,11.5522847 4,11 L4,5 C4,4.44771525 4.44771525,4 5,4 Z" fill="#FFFFFF"></path>
    <path d="M8,4 C8.55228475,4 9,4.44771525 9,5 L9,11 C9,11.5522847 8.55228475,12 8,12 C7.44771525,12 7,11.5522847 7,11 L7,5 C7,4.44771525 7.44771525,4 8,4 Z" fill="#FFFFFF"></path>
    <path d="M12,4 C12.5522847,4 13,4.44771525 13,5 L13,7 C13,8.1045695 12.1045695,9 11,9 C10.4477153,9 10,8.55228475 10,8 L10,5 C10,4.44771525 10.4477153,4 11,4 L12,4 Z" fill="#FFFFFF"></path>
  </g>
</svg>
