<?xml version="1.0" encoding="UTF-8"?>
<svg width="48px" height="48px" viewBox="0 0 48 48" version="1.1" xmlns="http://www.w3.org/2000/svg">
  <g stroke="none" stroke-width="1" fill="none" fill-rule="evenodd">
    <rect fill="#2E7D32" x="0" y="0" width="48" height="48" rx="8"></rect>
    <path d="M14,12 C15.6568542,12 17,13.3431458 17,15 L17,33 C17,34.6568542 15.6568542,36 14,36 C12.3431458,36 11,34.6568542 11,33 L11,15 C11,13.3431458 12.3431458,12 14,12 Z" fill="#FFFFFF"></path>
    <path d="M24,12 C25.6568542,12 27,13.3431458 27,15 L27,33 C27,34.6568542 25.6568542,36 24,36 C22.3431458,36 21,34.6568542 21,33 L21,15 C21,13.3431458 22.3431458,12 24,12 Z" fill="#FFFFFF"></path>
    <path d="M36,12 C37.6568542,12 39,13.3431458 39,15 L39,21 C39,24.3137085 36.3137085,27 33,27 C31.3431458,27 30,25.6568542 30,24 L30,15 C30,13.3431458 31.3431458,12 33,12 L36,12 Z" fill="#FFFFFF"></path>
  </g>
</svg>
