<?xml version="1.0" encoding="UTF-8"?>
<svg width="128px" height="128px" viewBox="0 0 128 128" version="1.1" xmlns="http://www.w3.org/2000/svg">
  <g stroke="none" stroke-width="1" fill="none" fill-rule="evenodd">
    <rect fill="#2E7D32" x="0" y="0" width="128" height="128" rx="20"></rect>
    <path d="M38,32 C41.3137085,32 44,34.6862915 44,38 L44,90 C44,93.3137085 41.3137085,96 38,96 C34.6862915,96 32,93.3137085 32,90 L32,38 C32,34.6862915 34.6862915,32 38,32 Z" fill="#FFFFFF"></path>
    <path d="M64,32 C67.3137085,32 70,34.6862915 70,38 L70,90 C70,93.3137085 67.3137085,96 64,96 C60.6862915,96 58,93.3137085 58,90 L58,38 C58,34.6862915 60.6862915,32 64,32 Z" fill="#FFFFFF"></path>
    <path d="M96,32 C99.3137085,32 102,34.6862915 102,38 L102,54 C102,63.9411255 94.3594035,72 85,72 C81.6862915,72 79,69.3137085 79,66 L79,38 C79,34.6862915 81.6862915,32 85,32 L96,32 Z" fill="#FFFFFF"></path>
  </g>
</svg>
